<svg xmlns="http://www.w3.org/2000/svg" viewBox="0 0 1200 800" role="img" aria-label="Illustration of a fantasy theme park castle">
  <defs><linearGradient id="sky" x1="0" x2="0" y1="0" y2="1"><stop stop-color="#b9e3f5"/><stop offset="1" stop-color="#fff1cc"/></linearGradient></defs>
  <rect width="1200" height="800" fill="url(#sky)"/>
  <circle cx="955" cy="120" r="78" fill="#f5cf6e"/>
  <path d="M0 595c190-75 355-78 520-24 170 56 360 42 680-65v294H0z" fill="#84c987"/>
  <g transform="translate(260 230)">
    <rect x="80" y="230" width="530" height="210" rx="20" fill="#f0c38d"/>
    <rect x="142" y="110" width="92" height="330" fill="#e39a80"/>
    <rect x="370" y="40" width="102" height="400" fill="#dd8b76"/>
    <rect x="536" y="150" width="92" height="290" fill="#e6a186"/>
    <path d="M132 110l58-98 58 98z" fill="#5179b9"/>
    <path d="M360 40l62-112 62 112z" fill="#5179b9"/>
    <path d="M526 150l56-95 56 95z" fill="#5179b9"/>
    <rect x="295" y="290" width="105" height="150" rx="52" fill="#6f4938"/>
    <circle cx="348" cy="255" r="45" fill="#f4dfaa"/>
    <path d="M0 440h700" stroke="#7cae72" stroke-width="30" stroke-linecap="round"/>
  </g>
  <g fill="#f4c45d" opacity=".9">
    <path d="M190 150l13 28 31 4-23 22 6 31-27-15-28 15 6-31-23-22 31-4z"/>
    <path d="M760 105l11 23 26 3-19 18 5 26-23-12-22 12 4-26-18-18 26-3z"/>
    <path d="M1005 300l14 30 33 4-24 23 6 33-29-16-30 16 6-33-24-23 33-4z"/>
  </g>
</svg>
