<svg xmlns="http://www.w3.org/2000/svg" viewBox="0 0 1200 800" role="img" aria-label="Illustration of M plus museum in West Kowloon">
  <defs><linearGradient id="g" x1="0" x2="0" y1="0" y2="1"><stop stop-color="#cfe7e5"/><stop offset="1" stop-color="#f6ecd0"/></linearGradient></defs>
  <rect width="1200" height="800" fill="url(#g)"/>
  <path d="M0 566c160-55 310-62 452-18 190 59 386 43 748-58v310H0z" fill="#5cb4bd"/>
  <g transform="translate(270 120)">
    <path d="M48 145h610v360H48z" fill="#213f3f"/>
    <path d="M0 505h725v84H0z" fill="#2e6b67"/>
    <rect x="118" y="210" width="88" height="88" fill="#efc65e"/>
    <rect x="234" y="210" width="88" height="88" fill="#f1efe0"/>
    <rect x="350" y="210" width="88" height="88" fill="#ef7b5e"/>
    <rect x="466" y="210" width="88" height="88" fill="#7bd1c4"/>
    <rect x="118" y="326" width="88" height="88" fill="#7bd1c4"/>
    <rect x="234" y="326" width="88" height="88" fill="#ef7b5e"/>
    <rect x="350" y="326" width="88" height="88" fill="#f1efe0"/>
    <rect x="466" y="326" width="88" height="88" fill="#efc65e"/>
    <rect x="270" y="0" width="166" height="505" fill="#182f31" opacity=".95"/>
    <rect x="305" y="80" width="96" height="345" fill="#f7efe0"/>
  </g>
</svg>
