<svg xmlns="http://www.w3.org/2000/svg" viewBox="0 0 1200 800" role="img" aria-label="Illustration of Ocean Park with cable car and sea life">
  <defs><linearGradient id="sky" x1="0" x2="0" y1="0" y2="1"><stop stop-color="#bde7ef"/><stop offset="1" stop-color="#f6eed2"/></linearGradient><linearGradient id="sea" x1="0" x2="1"><stop stop-color="#44aebd"/><stop offset="1" stop-color="#246b8b"/></linearGradient></defs>
  <rect width="1200" height="800" fill="url(#sky)"/>
  <path d="M0 490c160-110 310-140 470-76 100 40 190 66 310 8 138-66 266-68 420-4v382H0z" fill="#4f8b62"/>
  <path d="M0 600c190 38 350 29 530-18 210-54 430-42 670 18v200H0z" fill="url(#sea)"/>
  <path d="M125 285c250-110 485-115 705-20" fill="none" stroke="#315b5d" stroke-width="9" opacity=".75"/>
  <g transform="translate(350 220)">
    <rect x="0" y="0" width="116" height="78" rx="18" fill="#f4e8c9" stroke="#315b5d" stroke-width="7"/>
    <rect x="20" y="22" width="30" height="28" rx="6" fill="#4fb1bd"/><rect x="66" y="22" width="30" height="28" rx="6" fill="#4fb1bd"/>
    <path d="M58 0v-54" stroke="#315b5d" stroke-width="7"/>
  </g>
  <g transform="translate(720 274)">
    <rect x="0" y="0" width="116" height="78" rx="18" fill="#f4e8c9" stroke="#315b5d" stroke-width="7"/>
    <rect x="20" y="22" width="30" height="28" rx="6" fill="#4fb1bd"/><rect x="66" y="22" width="30" height="28" rx="6" fill="#4fb1bd"/>
    <path d="M58 0v-54" stroke="#315b5d" stroke-width="7"/>
  </g>
  <g transform="translate(230 590)" fill="#f6f1dc">
    <ellipse cx="86" cy="42" rx="86" ry="42"/>
    <path d="M152 42l70-44v88z"/>
    <circle cx="54" cy="32" r="8" fill="#246b8b"/>
  </g>
  <g transform="translate(680 560)">
    <circle cx="70" cy="70" r="66" fill="#f8f8ee"/><circle cx="35" cy="32" r="30" fill="#263e38"/><circle cx="105" cy="32" r="30" fill="#263e38"/>
    <circle cx="48" cy="70" r="14" fill="#263e38"/><circle cx="92" cy="70" r="14" fill="#263e38"/>
    <ellipse cx="70" cy="92" rx="24" ry="16" fill="#263e38"/>
  </g>
</svg>
