<svg xmlns="http://www.w3.org/2000/svg" viewBox="0 0 1200 800" role="img" aria-label="Illustration of a Star Ferry on Victoria Harbour">
  <defs>
    <linearGradient id="sky" x1="0" x2="0" y1="0" y2="1"><stop stop-color="#b9e2e8"/><stop offset="1" stop-color="#f7edd0"/></linearGradient>
    <linearGradient id="water" x1="0" x2="1"><stop stop-color="#43a6b2"/><stop offset="1" stop-color="#246a78"/></linearGradient>
  </defs>
  <rect width="1200" height="800" fill="url(#sky)"/>
  <path d="M0 445c130-45 250-44 360-16 132 33 245 38 365-3 140-47 300-38 475 20v354H0z" fill="url(#water)"/>
  <g fill="#2f5963" opacity=".78">
    <rect x="82" y="250" width="58" height="188"/><rect x="158" y="205" width="80" height="233"/>
    <rect x="275" y="268" width="64" height="170"/><rect x="368" y="182" width="52" height="256"/>
    <rect x="470" y="234" width="84" height="204"/><rect x="610" y="170" width="70" height="268"/>
    <rect x="720" y="245" width="62" height="193"/><rect x="820" y="214" width="92" height="224"/>
    <rect x="965" y="180" width="54" height="258"/><rect x="1050" y="252" width="70" height="186"/>
  </g>
  <g transform="translate(185 410)">
    <path d="M40 170h720c-42 70-128 108-260 112H210C126 274 70 237 40 170z" fill="#174f43"/>
    <path d="M90 88h590l62 82H58z" fill="#f6f1dc"/>
    <path d="M155 12h438l86 78H98z" fill="#2a7d63"/>
    <rect x="178" y="34" width="58" height="42" rx="6" fill="#f9f3dd"/><rect x="258" y="34" width="58" height="42" rx="6" fill="#f9f3dd"/>
    <rect x="338" y="34" width="58" height="42" rx="6" fill="#f9f3dd"/><rect x="418" y="34" width="58" height="42" rx="6" fill="#f9f3dd"/>
    <rect x="498" y="34" width="58" height="42" rx="6" fill="#f9f3dd"/>
    <rect x="132" y="110" width="530" height="34" rx="8" fill="#2c876b"/>
    <circle cx="184" cy="204" r="28" fill="#f9f3dd"/><circle cx="292" cy="204" r="28" fill="#f9f3dd"/>
    <circle cx="400" cy="204" r="28" fill="#f9f3dd"/><circle cx="508" cy="204" r="28" fill="#f9f3dd"/>
  </g>
  <path d="M0 675c130 34 240 29 340-9 120-45 230-42 360 4 140 50 295 47 500-10v140H0z" fill="#d8f2ee" opacity=".36"/>
</svg>
