<svg xmlns="http://www.w3.org/2000/svg" viewBox="0 0 1200 800" role="img" aria-label="Illustration of The Peak and Hong Kong skyline">
  <defs><linearGradient id="s" x1="0" x2="0" y1="0" y2="1"><stop stop-color="#b7ddea"/><stop offset="1" stop-color="#f8f0d5"/></linearGradient></defs>
  <rect width="1200" height="800" fill="url(#s)"/>
  <circle cx="930" cy="145" r="88" fill="#f7d67c" opacity=".85"/>
  <path d="M0 520c190-135 334-178 492-96 108 56 199 76 327-3 112-69 234-80 381 6v373H0z" fill="#376e54"/>
  <path d="M0 615c176-76 363-90 570-45 205 44 392 23 630-50v280H0z" fill="#254d42"/>
  <g transform="translate(170 318)" fill="#d9edf0" stroke="#2e6064" stroke-width="6">
    <rect x="0" y="88" width="70" height="160"/><rect x="95" y="30" width="88" height="218"/>
    <rect x="212" y="115" width="64" height="133"/><rect x="308" y="0" width="82" height="248"/>
    <rect x="420" y="64" width="72" height="184"/><rect x="532" y="22" width="100" height="226"/>
    <rect x="668" y="104" width="70" height="144"/><rect x="780" y="50" width="86" height="198"/>
  </g>
  <g transform="translate(670 465)">
    <path d="M0 112c88-80 206-110 340-92 38 5 72 18 103 38-130 78-270 123-443 54z" fill="#7bbd72"/>
    <path d="M105 75l105-66 96 74" fill="none" stroke="#f6efd6" stroke-width="18" stroke-linecap="round" stroke-linejoin="round"/>
    <circle cx="210" cy="8" r="25" fill="#f3c764"/>
  </g>
</svg>
